<svg xmlns="http://www.w3.org/2000/svg" viewBox="0 0 25 25"><style>.cls-1{fill-rule:evenodd;color:#fff;}</style><title>task-scheduled</title><g id="budicon-task-scheduled"><path class="cls-1" d="M20.5,3H18.908A1.4975,1.4975,0,0,0,17.5,2H17V1.5A1.5,1.5,0,0,0,15.5,0h-6A1.5,1.5,0,0,0,8,1.5V2H7.5A1.4975,1.4975,0,0,0,6.092,3H4.5A1.5016,1.5016,0,0,0,3,4.5v19A1.5016,1.5016,0,0,0,4.5,25h16A1.5016,1.5016,0,0,0,22,23.5V4.5A1.5016,1.5016,0,0,0,20.5,3ZM7,3.5A.5.5,0,0,1,7.5,3H9V1.5A.5.5,0,0,1,9.5,1h6a.5.5,0,0,1,.5.5V3h1.5a.5.5,0,0,1,.5.5v1a.5.5,0,0,1-.5.5H7.5A.5.5,0,0,1,7,4.5Zm14,20a.5.5,0,0,1-.5.5H4.5a.5.5,0,0,1-.5-.5V4.5A.5.5,0,0,1,4.5,4H6v.5A1.5016,1.5016,0,0,0,7.5,6h10A1.5016,1.5016,0,0,0,19,4.5V4h1.5a.5.5,0,0,1,.5.5ZM12.5,9A5.5,5.5,0,1,0,18,14.5,5.5,5.5,0,0,0,12.5,9Zm0,10A4.5,4.5,0,1,1,17,14.5,4.5049,4.5049,0,0,1,12.5,19Zm2.3-2.9a.5.5,0,1,1-.6.8l-2-1.5A.5.5,0,0,1,12,15V12.5a.5.5,0,0,1,1,0v2.25Z"/></g></svg>
