<svg xmlns="http://www.w3.org/2000/svg" viewBox="0 0 25 25"><defs><style>.cls-1{fill-rule:evenodd;color:#fff;}</style></defs><title>note-alert</title><g id="budicon-note-alert"><path class="cls-1" d="M19.5,2H18V.5a.5.5,0,0,0-1,0V2H13V.5a.5.5,0,0,0-1,0V2H8V.5a.5.5,0,0,0-1,0V2H5.5A1.5016,1.5016,0,0,0,4,3.5v20A1.5016,1.5016,0,0,0,5.5,25h14A1.5016,1.5016,0,0,0,21,23.5V3.5A1.5016,1.5016,0,0,0,19.5,2ZM20,23.5a.5.5,0,0,1-.5.5H5.5a.5.5,0,0,1-.5-.5V6H20ZM20,5H5V3.5A.5.5,0,0,1,5.5,3h14a.5.5,0,0,1,.5.5ZM13,19H12V17h1Zm0-3H12V10h1Z"/></g></svg>
